<?xml version="1.0" standalone="no"?>
<!DOCTYPE svg PUBLIC "-//W3C//DTD SVG 1.1//EN" "http://www.w3.org/Graphics/SVG/1.1/DTD/svg11.dtd" >
<svg xmlns="http://www.w3.org/2000/svg">
<metadata></metadata>
<defs>
<font id="itc_avant_garde_gothic_stdBk" horiz-adv-x="1134" >
<font-face units-per-em="2048" ascent="1516" descent="-532" />
<missing-glyph horiz-adv-x="567" />
<glyph unicode="&#xfb01;" horiz-adv-x="997" d="M39 991v129h174q4 114 18 168q19 72 59.5 123t97 78.5t118.5 39.5t137 13v-133q-154 0 -220.5 -66t-66.5 -215v-8h508v-1120h-143v991h-365v-991h-143v991h-174zM721 1257v259h143v-259h-143z" />
<glyph unicode="&#xfb02;" horiz-adv-x="993" d="M39 991v129h174q4 114 18 168q19 72 59.5 123t97 78.5t118.5 39.5t137 13v-133q-154 0 -220.5 -66t-66.5 -215v-8h361v396h143v-1516h-143v991h-361v-991h-143v991h-174z" />
<glyph unicode="&#xfb03;" horiz-adv-x="1519" d="M39 991v129h174q1 45 3 73.5t11.5 77t25.5 80.5t48 71t76 62.5t112 40t154 17.5v-133q-59 0 -105 -10.5t-75.5 -26t-51 -41.5t-32 -47.5t-16 -54t-6.5 -52t-1 -49.5v-8h365q1 45 3 73.5t11.5 77t25.5 80.5t48 71t76 62.5t112 40t154 17.5v-133q-59 0 -105 -10.5 t-75.5 -26t-51 -41.5t-32 -47.5t-16 -54t-6.5 -52t-1 -49.5v-8h508v-1120h-143v991h-365v-991h-143v991h-365v-991h-143v991h-174zM1229 1257v259h143v-259h-143z" />
<glyph unicode="&#xfb04;" horiz-adv-x="1366" d="M31 981v131h135v78q0 143 94 237.5t285 100.5v-133q-236 -4 -236 -201v-82h312v78q0 143 93.5 237.5t284.5 100.5v-133q-235 -4 -235 -201v-82h311v404h144v-1516h-144v981h-311v-981h-143v981h-312v-981h-143v981h-135z" />
<glyph horiz-adv-x="2048" />
<glyph horiz-adv-x="2048" />
<glyph unicode="&#xd;" horiz-adv-x="2048" />
<glyph unicode=" "  horiz-adv-x="567" />
<glyph unicode="&#x09;" horiz-adv-x="567" />
<glyph unicode="&#xa0;" horiz-adv-x="567" />
<glyph unicode="!" horiz-adv-x="604" d="M227 0v258h152v-258h-152zM227 395v1121h152v-1121h-152z" />
<glyph unicode="&#x22;" horiz-adv-x="632" d="M74 1516h166l-25 -607h-117zM393 1516h166l-24 -607h-117z" />
<glyph unicode="#" d="M68 422v137h219l53 395h-219v140h239l60 422h141l-59 -422h254l59 422h141l-59 -422h170v-138h-190l-56 -397h189v-137h-207l-60 -422h-141l60 422h-254l-60 -422h-141l59 422h-198zM428 559h252l55 397h-252z" />
<glyph unicode="$" d="M143 438v29h152q0 -132 74.5 -207.5t205.5 -75.5q123 0 195 74.5t72 198.5q0 66 -22 116t-64.5 82t-89 52t-111.5 36q-69 17 -120 36t-100 49.5t-80 69t-49.5 94.5t-19.5 126v8q-1 139 84 238.5t224 124.5v172h151v-166q153 -21 240.5 -123.5t93.5 -257.5h-152 q0 116 -69.5 182t-186.5 66q-107 0 -170 -64t-63 -172q0 -50 15 -88.5t36.5 -62.5t61 -44t70.5 -30t83 -24q87 -23 153.5 -55t121.5 -81t84.5 -121t29.5 -163q0 -154 -98 -268.5t-250 -129.5v-202h-151v202q-143 15 -247 125.5t-104 253.5z" />
<glyph unicode="%" horiz-adv-x="1587" d="M43 1171q0 152 109 259.5t262 107.5t261.5 -107.5t108.5 -259.5t-108.5 -259t-261.5 -107t-262 107t-109 259zM166 1171q0 -105 72 -178t176 -73t176 73t72 178t-72 178.5t-176 73.5t-176 -73.5t-72 -178.5zM283 0l868 1516h139l-868 -1516h-139zM801 340 q0 152 108.5 259.5t261.5 107.5t262 -107.5t109 -259.5t-109 -259.5t-262 -107.5t-261.5 107.5t-108.5 259.5zM924 340q0 -105 71.5 -178.5t175.5 -73.5t176 73.5t72 178.5t-72 178.5t-176 73.5t-175.5 -73.5t-71.5 -178.5z" />
<glyph unicode="&#x26;" horiz-adv-x="1550" d="M115 438q0 295 350 451q-54 53 -86.5 93t-58 99.5t-25.5 124.5q0 144 109.5 240t254.5 96q146 0 254.5 -104t108.5 -250q0 -120 -86 -211t-209 -133l287 -283l221 426h170l-281 -534l383 -373l-108 -105l-346 338q-39 -76 -82 -133t-98.5 -105.5t-126.5 -74t-154 -25.5 q-127 0 -236.5 61t-175 168t-65.5 234zM266 430q0 -126 94 -218.5t220 -92.5q54 0 102.5 18.5t82.5 45t68.5 70.5t56 80t48.5 89l-365 358q-128 -44 -217.5 -136t-89.5 -214zM446 1208q0 -37 15.5 -74t44 -71.5t53 -59t59.5 -53.5q44 17 73 29.5t66.5 35.5t59 47t37.5 60.5 t16 79.5q0 87 -62.5 142t-150.5 55q-83 0 -147 -54.5t-64 -136.5z" />
<glyph unicode="'" horiz-adv-x="405" d="M121 1516h166l-25 -607h-117z" />
<glyph unicode="(" horiz-adv-x="755" d="M96 565q0 235 99 456t276 376q127 111 256 153v-153q-212 -127 -345.5 -356.5t-133.5 -475.5q0 -250 131.5 -477.5t347.5 -359.5v-148q-127 42 -256 154q-177 155 -276 375.5t-99 455.5z" />
<glyph unicode=")" horiz-adv-x="755" d="M29 -272q216 132 347.5 359.5t131.5 477.5q0 246 -133.5 475.5t-345.5 356.5v153q129 -42 256 -153q176 -155 275 -375.5t99 -456.5t-99 -456t-275 -375q-129 -112 -256 -154v148z" />
<glyph unicode="*" horiz-adv-x="870" d="M119 1243l37 115l223 -78l-2 236h119l-4 -238l223 76l37 -113l-226 -70l140 -188l-97 -70l-137 193l-135 -191l-96 70l141 189z" />
<glyph unicode="+" horiz-adv-x="1241" d="M104 449v139h447v448h139v-448h447v-139h-447v-449h-139v449h-447z" />
<glyph unicode="," horiz-adv-x="567" d="M29 -137l180 395h151l-180 -395h-151z" />
<glyph unicode="-" horiz-adv-x="679" d="M61 508v137h557v-137h-557z" />
<glyph unicode="." horiz-adv-x="567" d="M209 0v258h151v-258h-151z" />
<glyph unicode="/" horiz-adv-x="894" d="M90 -205l574 1721h161l-579 -1721h-156z" />
<glyph unicode="0" d="M59 553v442q0 166 58 279q64 126 185.5 197t264.5 71t265 -71t186 -197q57 -111 57 -279v-442q0 -211 -76 -344q-68 -115 -182 -175.5t-250 -60.5t-250 60.5t-182 175.5q-76 133 -76 344zM211 575q0 -208 57 -303q48 -80 125.5 -120.5t173.5 -40.5t173.5 40.5 t125.5 120.5q58 96 58 303v386q0 74 -16.5 154.5t-49.5 133.5q-44 70 -125.5 113t-165.5 43t-165.5 -43t-125.5 -113q-33 -53 -49 -133t-16 -155v-386z" />
<glyph unicode="1" d="M276 1378v138h412v-1516h-151v1378h-261z" />
<glyph unicode="2" d="M82 0v137l532 512q10 10 45.5 43.5t50.5 48t46.5 48t46.5 54t37.5 53.5t33 60t19 60.5t8.5 66.5q0 133 -97.5 227.5t-230.5 94.5q-157 0 -242 -108t-85 -271h-152v4q0 169 72.5 293t222.5 182q90 37 193 37q147 0 262 -77t172 -212q37 -85 37 -172q0 -60 -16.5 -117.5 t-40 -101.5t-64.5 -94.5t-73.5 -83.5t-84.5 -82l-487 -465h757v-137h-962z" />
<glyph unicode="3" d="M70 475h151q10 -131 53 -203q46 -76 121 -118.5t164 -42.5q148 0 237 99t89 249q0 114 -73.5 204.5t-184.5 118.5q-16 4 -33.5 6.5t-38 4t-33.5 2t-37.5 1.5t-33.5 1v133q8 0 25.5 -1t25.5 -1q121 0 201.5 61t80.5 176q0 104 -66 172t-169 68q-107 0 -167 -79.5 t-60 -188.5h-152q5 173 109 289t274 116q165 0 274 -112t109 -277q0 -91 -39 -157t-117 -128q117 -61 186.5 -167t69.5 -234q0 -135 -61 -248t-171 -179.5t-245 -66.5q-96 0 -180 35q-150 56 -226.5 178t-82.5 289z" />
<glyph unicode="4" d="M29 276v138l735 1102h180v-1102h137v-138h-137v-276h-151v276h-764zM203 414h590v893h-5z" />
<glyph unicode="5" d="M53 477h152q16 -155 115 -260.5t251 -105.5q154 0 258.5 117t104.5 274q0 103 -44 193t-128 146t-189 56q-92 0 -173 -47t-142 -125l-119 43l137 748h682v-138h-561l-75 -417q129 71 258 71q143 0 259.5 -72.5t181 -193.5t64.5 -264q0 -142 -67 -263.5t-186 -193.5 t-261 -72q-85 0 -176 33q-151 55 -235 177.5t-107 293.5z" />
<glyph unicode="6" d="M49 512q0 62 13.5 120t44 118.5t54.5 99t70 106.5l377 557h172l-350 -514l4 -2q71 33 141 33q145 0 262 -70.5t182.5 -191t65.5 -264.5q0 -223 -148 -377t-370 -154q-151 0 -270 71.5t-183.5 194t-64.5 273.5zM201 498q0 -158 104.5 -272.5t261.5 -114.5q161 0 264 114.5 t103 276.5q0 161 -104 276t-263 115q-106 0 -191 -55.5t-130 -145t-45 -194.5z" />
<glyph unicode="7" d="M129 1378v138h877v-138l-621 -1378h-160l625 1378h-721z" />
<glyph unicode="8" d="M84 440q0 131 71.5 245.5t188.5 160.5q-81 53 -129.5 132t-48.5 171q0 168 116.5 280.5t284.5 112.5q169 0 285.5 -115.5t116.5 -283.5q0 -89 -51 -171.5t-130 -125.5q121 -58 192 -166t71 -240q0 -128 -66.5 -236t-177 -169.5t-238.5 -61.5t-239.5 61t-178.5 169 t-67 237zM236 446q0 -145 95 -240t240 -95q136 0 232 97t96 232q0 137 -98.5 232.5t-235.5 95.5q-132 0 -230.5 -95.5t-98.5 -226.5zM317 1155q0 -100 75.5 -173t176.5 -73q102 0 175 72t73 174t-72 176t-174 74q-106 0 -180 -72.5t-74 -177.5z" />
<glyph unicode="9" d="M49 1010q0 223 148 376.5t370 153.5q151 0 270 -71.5t183.5 -194t64.5 -273.5q0 -62 -13.5 -120t-44 -118.5t-54.5 -99t-70 -106.5l-377 -557h-172l351 514l-5 2q-62 -33 -141 -33q-144 0 -261.5 71t-183 191.5t-65.5 264.5zM201 1012q0 -161 103.5 -276t262.5 -115 q106 0 191 55.5t130.5 145t45.5 194.5q0 158 -105 272.5t-262 114.5q-161 0 -263.5 -114.5t-102.5 -276.5z" />
<glyph unicode=":" horiz-adv-x="567" d="M209 0v258h151v-258h-151zM209 864v258h151v-258h-151z" />
<glyph unicode=";" horiz-adv-x="567" d="M29 -137l180 395h151l-180 -395h-151zM209 864v258h151v-258h-151z" />
<glyph unicode="&#x3c;" horiz-adv-x="1241" d="M94 455v127l1041 471v-140l-871 -395l871 -395v-139z" />
<glyph unicode="=" horiz-adv-x="1241" d="M104 242v139h1033v-139h-1033zM104 655v140h1033v-140h-1033z" />
<glyph unicode="&#x3e;" horiz-adv-x="1241" d="M106 -16v139l871 395l-871 395v140l1041 -471v-127z" />
<glyph unicode="?" horiz-adv-x="1210" d="M131 1040v39q0 127 67 233.5t177.5 167t236.5 60.5q196 0 330.5 -130t134.5 -325q0 -66 -20.5 -123t-53.5 -99.5t-73 -82.5t-81 -80t-75 -82.5t-57.5 -100t-26.5 -122.5h-151v8q0 74 21.5 139.5t55.5 113t75.5 91t82.5 82.5t75 77.5t55.5 86t21.5 99.5q0 127 -96 216 t-224 89q-84 0 -156 -39.5t-120 -110.5q-31 -46 -39 -91t-8 -116h-152zM539 0v258h151v-258h-151z" />
<glyph unicode="@" horiz-adv-x="1775" d="M133 741q0 232 104 415t288.5 284.5t416.5 101.5q201 0 360 -81t251 -235.5t92 -357.5q0 -104 -27 -198q-17 -62 -47 -121t-72 -112t-101 -85.5t-124 -32.5q-72 0 -116.5 45.5t-47.5 118.5h-4q-102 -164 -283 -164q-99 0 -173.5 53.5t-110 136t-35.5 179.5 q0 86 28.5 168.5t78.5 148t126.5 106t165.5 40.5q199 0 254 -182h4l29 153h123l-86 -485q-1 -3 -10 -49.5t-9 -69.5q0 -34 18.5 -59t51.5 -25q46 0 86 27.5t67 72t45 88.5t29 89q17 87 17 155q0 173 -78 301.5t-212 194t-306 65.5q-143 0 -267.5 -51t-213 -139.5t-139 -213 t-50.5 -267.5q0 -309 190 -488.5t502 -179.5q264 0 488 102l30 -104q-241 -113 -518 -113q-125 0 -236.5 26t-209 78.5t-175.5 138t-128 198.5q-66 150 -66 327zM627 692q0 -113 56 -185.5t165 -72.5q67 0 120.5 35.5t84.5 91.5t47 119.5t16 126.5q0 95 -55 162t-148 67 q-88 0 -155 -52t-99 -129t-32 -163z" />
<glyph unicode="A" horiz-adv-x="1515" d="M25 0l647 1516h170l651 -1516h-166l-219 510h-705l-221 -510h-157zM461 647h588l-291 696z" />
<glyph unicode="B" horiz-adv-x="1175" d="M152 0v1516h380q76 0 143.5 -12.5t130.5 -40t112.5 -77t78.5 -118.5q31 -76 31 -156q0 -99 -41 -169t-125 -136q117 -47 184.5 -147t67.5 -226q0 -106 -45 -201.5t-129 -148.5q-83 -52 -166 -68t-205 -16h-417zM303 137h213q65 0 100.5 1.5t90 10.5t96.5 27 q75 31 117.5 102.5t42.5 155.5q0 85 -49.5 154t-129.5 102q-43 17 -101 25.5t-89.5 9t-104.5 0.5h-186v-588zM303 862h191q59 0 91.5 1.5t82 11.5t86.5 30q57 30 90 88.5t33 124.5q0 93 -64 166q-26 31 -63 51t-81 28.5t-80 11.5t-83 3h-203v-516z" />
<glyph unicode="C" horiz-adv-x="1665" d="M88 756q0 217 105.5 397.5t287 283.5t398.5 103q172 0 328 -70.5t270 -199.5q64 -71 96 -144h-170q-87 130 -227.5 203.5t-298.5 73.5q-170 0 -317.5 -90t-233.5 -239.5t-86 -319.5q0 -125 52 -243.5t138.5 -206t204.5 -140.5t244 -53q159 0 294 76t236 210h170 q-105 -194 -292.5 -309t-405.5 -115q-160 0 -306.5 61.5t-253 165.5t-170 249.5t-63.5 306.5z" />
<glyph unicode="D" horiz-adv-x="1523" d="M152 0v1516h442q131 0 263.5 -31t229.5 -94q160 -102 252.5 -273.5t92.5 -363.5q0 -188 -93 -357t-252 -272q-97 -62 -230 -93.5t-263 -31.5h-442zM303 137h252q157 0 270.5 24t216.5 99q114 82 176 218t62 282q0 151 -68 284.5t-190 217.5q-102 71 -220.5 93.5 t-279.5 22.5h-219v-1241z" />
<glyph unicode="E" horiz-adv-x="1097" d="M143 0v1516h830v-138h-678v-544h655v-138h-655v-559h678v-137h-830z" />
<glyph unicode="F" horiz-adv-x="993" d="M143 0v1516h766v-138h-614v-549h592v-137h-592v-692h-152z" />
<glyph unicode="G" horiz-adv-x="1785" d="M82 758q0 162 66 308.5t176.5 250t259 164.5t309.5 61q178 0 339.5 -72.5t278.5 -205.5q66 -72 99 -152h-176q-78 135 -228 214t-311 79q-177 0 -329 -86t-242.5 -236t-90.5 -327q0 -135 54 -255.5t144.5 -205.5t213.5 -134.5t256 -49.5t260.5 56t223 160t128.5 232h-845 v137h1028q-16 -204 -129 -370.5t-290.5 -259.5t-381.5 -93q-159 0 -308 61.5t-260 166t-178 251t-67 306.5z" />
<glyph unicode="H" horiz-adv-x="1398" d="M156 0v1516h151v-668h785v668h151v-1516h-151v711h-785v-711h-151z" />
<glyph unicode="I" horiz-adv-x="462" d="M156 0v1516h151v-1516h-151z" />
<glyph unicode="J" horiz-adv-x="987" d="M12 360h150q8 -109 81 -179t183 -70q65 0 112 22t72 54.5t39.5 84.5t18.5 96.5t4 106.5v1041h151v-1035q0 -64 -1.5 -100t-10.5 -91.5t-27 -96.5q-45 -103 -144.5 -161.5t-215.5 -58.5q-172 0 -287.5 108t-124.5 279z" />
<glyph unicode="K" horiz-adv-x="1210" d="M166 0v1516h151v-871h5l694 871h194l-600 -740l600 -776h-190l-506 657l-197 -241v-416h-151z" />
<glyph unicode="L" horiz-adv-x="946" d="M168 0v1516h151v-1379h627v-137h-778z" />
<glyph unicode="M" horiz-adv-x="1882" d="M156 0v1516h233l551 -1291l553 1291h233v-1516h-151v1350h-4l-567 -1350h-130l-563 1350h-4v-1350h-151z" />
<glyph unicode="N" horiz-adv-x="1515" d="M154 0v1516h204l846 -1258h4v1258h152v-1516h-152l-899 1333h-4v-1333h-151z" />
<glyph unicode="O" horiz-adv-x="1779" d="M88 750q0 217 108 399.5t292 287.5t401 105q160 0 308 -61.5t256.5 -165.5t173.5 -250t65 -307t-65 -307t-174 -250.5t-256.5 -166t-307.5 -61.5q-157 0 -304 61.5t-256 164.5t-175 248t-66 303zM240 750q0 -171 89 -319t239 -234t321 -86q174 0 324 86.5t238.5 235 t88.5 323.5t-88 324.5t-238 237t-325 87.5q-177 0 -326.5 -88.5t-236 -239.5t-86.5 -327z" />
<glyph unicode="P" horiz-adv-x="1212" d="M154 0v1516h421q122 0 218 -18t174 -71q91 -62 139.5 -157t48.5 -207t-48.5 -207.5t-139.5 -157.5q-78 -53 -173.5 -70.5t-218.5 -17.5h-270v-610h-151zM305 748h262q127 0 178 10q43 9 82 28q85 40 131 111.5t46 165.5q0 93 -46 164.5t-131 111.5q-40 19 -89 28t-77 10 t-94 1h-262v-630z" />
<glyph unicode="Q" horiz-adv-x="1783" d="M82 752q0 168 64.5 315.5t174.5 251.5t260.5 163.5t317.5 59.5q169 0 319.5 -60t259.5 -165t172.5 -253.5t63.5 -318.5q0 -158 -65.5 -299.5t-184.5 -252.5q53 -45 106 -64q49 -18 113 -18h7v-138q-111 0 -183 28.5t-155 102.5q-198 -131 -455 -131q-161 0 -310 60 t-260.5 162.5t-178 248t-66.5 308.5zM233 743q0 -87 27 -172q157 52 320 52q122 0 225.5 -21.5t197.5 -68t173 -102t178 -140.5q209 206 209 459q0 180 -89 331t-241 237.5t-332 86.5q-183 0 -336.5 -87t-242.5 -239.5t-89 -335.5zM322 442q30 -58 88 -120 q196 -211 491 -211q197 0 334 98q-9 7 -47 37t-56.5 44t-49 36t-54.5 36q-100 60 -224 91.5t-247 31.5q-134 0 -235 -43z" />
<glyph unicode="R" horiz-adv-x="1243" d="M143 0v1516h385q252 0 373 -58q127 -61 198.5 -176t71.5 -256q0 -191 -128.5 -320t-321.5 -141l428 -565h-191l-514 686h58h45h29q21 0 63.5 2t73.5 7.5t57 13.5q113 35 181.5 120t68.5 201q0 88 -45.5 169t-120.5 122q-64 35 -132.5 46t-162.5 11h-264v-1378h-152z" />
<glyph unicode="S" horiz-adv-x="1019" d="M45 424h152q6 -142 90 -227.5t225 -85.5q127 0 216 87t89 214q0 59 -20 107.5t-50 80.5t-78.5 59.5t-90 43t-99.5 32.5q-52 15 -90 28t-81.5 33t-74 40.5t-60 50.5t-47.5 65t-29 81.5t-11 101.5q0 177 124 292t302 115q176 0 298 -118t122 -294h-152q0 111 -78.5 193 t-189.5 82q-115 0 -194.5 -75t-79.5 -189q0 -33 6.5 -61.5t21.5 -51t30.5 -41t41.5 -34t46 -26t53 -22t53 -17.5t56 -16.5t52 -15.5q173 -53 272 -161t99 -277q0 -123 -62 -226t-166.5 -161t-228.5 -58q-203 0 -333.5 124.5t-133.5 326.5z" />
<glyph unicode="T" horiz-adv-x="872" d="M12 1378v138h846v-138h-346v-1378h-152v1378h-348z" />
<glyph unicode="U" horiz-adv-x="1341" d="M154 571v945h151v-945q0 -182 51 -274q103 -186 314 -186q210 0 313 186q51 92 51 274v945h152v-945q0 -191 -58 -315q-64 -136 -184.5 -209.5t-273.5 -73.5t-274 73.5t-185 209.5q-57 122 -57 315z" />
<glyph unicode="V" horiz-adv-x="1437" d="M16 1516h168l535 -1328l536 1328h164l-628 -1516h-150z" />
<glyph unicode="W" horiz-adv-x="1966" d="M23 1516h155l371 -1321h4l360 1321h142l362 -1319h4l371 1319h154l-435 -1516h-192l-334 1243h-4l-332 -1243h-194z" />
<glyph unicode="X" horiz-adv-x="1247" d="M16 0l514 774l-485 742h178l404 -607l399 607h176l-487 -742l518 -774h-180l-426 647l-432 -647h-179z" />
<glyph unicode="Y" horiz-adv-x="1212" d="M2 1516h168l432 -850l445 850h165l-532 -1010v-506h-152v506z" />
<glyph unicode="Z" horiz-adv-x="983" d="M25 0v137l745 1241h-723v138h893v-138l-743 -1241h766v-137h-938z" />
<glyph unicode="[" horiz-adv-x="718" d="M272 199v774q0 163 67.5 292.5t201.5 211.5q73 47 149 65v-153q-137 -60 -201.5 -162t-64.5 -254v-748q0 -168 58 -269.5t208 -168.5v-154q-199 55 -308.5 206t-109.5 360z" />
<glyph unicode="\" horiz-adv-x="1239" d="M242 1516h161l574 -1721h-156z" />
<glyph unicode="]" horiz-adv-x="718" d="M29 -213q150 67 208 168.5t58 269.5v748q0 152 -64.5 254t-201.5 162v153q76 -18 149 -65q134 -82 201 -211.5t67 -292.5v-774q0 -210 -109 -360.5t-308 -205.5v154z" />
<glyph unicode="^" horiz-adv-x="1241" d="M109 629l446 887h131l447 -887h-144l-371 737l-364 -737h-145z" />
<glyph unicode="_" horiz-adv-x="1024" d="M0 -154h1024v-102h-1024v102z" />
<glyph unicode="`" horiz-adv-x="774" d="M141 1446l66 123l407 -223l-67 -119z" />
<glyph unicode="a" horiz-adv-x="1398" d="M86 563q0 164 81.5 299.5t219.5 211t301 75.5q136 0 251 -57t185 -168h4v196h144v-1120h-144v197h-4q-72 -108 -187.5 -166t-248.5 -58q-166 0 -304 76.5t-218 212t-80 301.5zM229 557q0 -196 131 -325.5t328 -129.5q189 0 319 134t130 323q0 124 -58.5 229.5 t-162.5 168.5t-228 63q-199 0 -329 -132t-130 -331z" />
<glyph unicode="b" horiz-adv-x="1396" d="M139 0v1516h144v-592h4q75 107 189.5 166t246.5 59q163 0 301 -75.5t219.5 -211t81.5 -299.5q0 -166 -80 -301.5t-218 -212t-304 -76.5q-132 0 -247.5 59t-188.5 165h-4v-197h-144zM274 559q0 -189 130 -323t319 -134q197 0 328 129.5t131 325.5q0 199 -130 331t-329 132 q-124 0 -228 -63t-162.5 -168.5t-58.5 -229.5z" />
<glyph unicode="c" horiz-adv-x="1325" d="M84 559q0 162 81.5 298t220 214t300.5 78q185 0 337 -98.5t220 -268.5h-158q-59 111 -164 174.5t-231 63.5t-232.5 -60t-168.5 -165t-62 -232q0 -195 134 -328t329 -133q127 0 232.5 59t162.5 169h158q-182 -357 -557 -357q-163 0 -301 76t-219.5 211t-81.5 299z" />
<glyph unicode="d" horiz-adv-x="1402" d="M80 563q0 164 81.5 299.5t219.5 211t301 75.5q131 0 247.5 -57.5t188.5 -163.5h4v588h144v-1516h-144v197h-4q-71 -106 -188.5 -165t-247.5 -59q-166 0 -304 76.5t-218 212t-80 301.5zM223 557q0 -196 131 -325.5t328 -129.5q189 0 318.5 134t129.5 323 q0 124 -58.5 229.5t-162 168.5t-227.5 63q-199 0 -329 -132t-130 -331z" />
<glyph unicode="e" horiz-adv-x="1331" d="M78 559q0 157 77.5 293t211.5 216.5t292 80.5q161 0 296.5 -82t213.5 -220t78 -298q0 -7 -1 -20.5t-1 -20.5h-1020q5 -108 67 -202t160.5 -149t206.5 -55q132 0 244.5 71.5t157.5 193.5h151q-62 -176 -213.5 -285t-336.5 -109q-159 0 -293.5 79t-212.5 213.5t-78 293.5z M225 637h875q-28 166 -149.5 274.5t-288.5 108.5q-166 0 -288.5 -108.5t-148.5 -274.5z" />
<glyph unicode="f" horiz-adv-x="643" d="M39 991v129h174q4 114 18 168q19 72 59.5 123t97 78.5t118.5 39.5t137 13v-133q-154 0 -220.5 -66t-66.5 -215v-8h287v-129h-287v-991h-143v991h-174z" />
<glyph unicode="g" horiz-adv-x="1378" d="M76 555q0 161 77.5 297.5t212.5 216.5t296 80q134 0 247.5 -59t184.5 -170h4v200h143v-944q0 -133 -19.5 -229t-82.5 -180q-75 -99 -195 -153t-250 -54q-207 0 -361.5 107.5t-211.5 303.5h151q54 -135 164 -208.5t256 -73.5q187 0 296.5 114t109.5 303v99h-4 q-59 -112 -178 -172t-254 -60q-160 0 -294.5 77t-213 211t-78.5 294zM219 559q0 -122 57.5 -227t160 -167.5t225.5 -62.5q184 0 314 135.5t130 321.5q0 187 -129 324t-315 137q-123 0 -225.5 -63.5t-160 -169t-57.5 -228.5z" />
<glyph unicode="h" horiz-adv-x="1249" d="M127 0v1516h143v-539h4q54 83 147 127.5t197 44.5q235 0 364.5 -147t129.5 -386v-616h-143v616q0 89 -25.5 172t-81.5 136q-104 96 -244 96q-139 0 -243 -96q-54 -52 -79.5 -132t-25.5 -165v-627h-143z" />
<glyph unicode="i" horiz-adv-x="409" d="M133 0v1120h143v-1120h-143zM133 1257v259h143v-259h-143z" />
<glyph unicode="j" horiz-adv-x="415" d="M-90 -252q59 2 101.5 21.5t66.5 48t37.5 74t17.5 87.5t4 99v1042h144v-1067q0 -123 -23.5 -206.5t-99.5 -149.5q-58 -51 -113 -69.5t-135 -20.5v141zM137 1257v259h144v-259h-144z" />
<glyph unicode="k" horiz-adv-x="1028" d="M143 0v1516h144v-1080h4l522 684h184l-442 -565l465 -555h-184l-369 442l-180 -229v-213h-144z" />
<glyph unicode="l" horiz-adv-x="409" d="M133 0v1516h143v-1516h-143z" />
<glyph unicode="m" horiz-adv-x="1921" d="M135 0v1120h144v-129q50 78 130 118t175 40q121 0 220 -56t157 -159q135 215 376 215q140 0 243 -64t154.5 -172.5t51.5 -246.5v-666h-144v649q0 77 -17 142t-52 117.5t-95.5 82t-140.5 29.5t-140.5 -29.5t-95.5 -82t-52 -117.5t-17 -142v-649h-143v649q0 77 -17 142 t-52 117.5t-95.5 82t-140.5 29.5t-140.5 -29.5t-95.5 -82t-52 -117.5t-17 -142v-649h-144z" />
<glyph unicode="n" horiz-adv-x="1249" d="M133 0v1120h143v-143h5q54 83 147 127.5t197 44.5q235 0 364 -147t129 -386v-616h-143v616q0 89 -25.5 172t-81.5 136q-104 96 -243 96q-140 0 -244 -96q-54 -52 -79.5 -132t-25.5 -165v-627h-143z" />
<glyph unicode="o" horiz-adv-x="1341" d="M86 553q0 160 77.5 297t212 218t294.5 81q157 0 292.5 -80t215 -215.5t79.5 -292.5q0 -158 -79 -293.5t-214.5 -215t-293.5 -79.5q-116 0 -224 46.5t-186.5 125t-126 185.5t-47.5 223zM229 555q0 -185 129.5 -319t313.5 -134q190 0 316 136.5t126 328.5 q0 184 -129.5 318.5t-312.5 134.5q-187 0 -315 -138t-128 -327z" />
<glyph unicode="p" horiz-adv-x="1396" d="M131 -393v1513h143v-196h5q76 108 189.5 166.5t246.5 58.5q163 0 301 -75.5t219.5 -211t81.5 -299.5q0 -166 -80 -301.5t-218 -212t-304 -76.5q-132 0 -247.5 59t-188.5 165h-5v-590h-143zM266 559q0 -189 130 -323t319 -134q197 0 328 129.5t131 325.5q0 199 -130 331 t-329 132q-124 0 -228 -63t-162.5 -168.5t-58.5 -229.5z" />
<glyph unicode="q" horiz-adv-x="1396" d="M76 563q0 164 81.5 299.5t219.5 211t301 75.5q134 0 250 -57.5t186 -167.5h4v196h144v-1513h-144v590h-4q-71 -108 -186.5 -166t-249.5 -58q-166 0 -304 76.5t-218 212t-80 301.5zM219 557q0 -196 131 -325.5t328 -129.5q189 0 318.5 134t129.5 323q0 124 -58.5 229.5 t-162 168.5t-227.5 63q-199 0 -329 -132t-130 -331z" />
<glyph unicode="r" horiz-adv-x="616" d="M133 0v1120h143v-162h5q43 100 119 141.5t196 49.5v-152q-149 -12 -234.5 -102t-85.5 -240v-655h-143z" />
<glyph unicode="s" horiz-adv-x="794" d="M49 319v13h144q2 -103 52 -166.5t148 -63.5q97 0 153 52.5t56 148.5q0 60 -28.5 103t-74.5 68t-101.5 45.5t-111 44.5t-101.5 55.5t-74.5 87t-28.5 131.5q0 137 90.5 224t228.5 87q129 0 217.5 -88t88.5 -217h-144q-5 75 -49.5 125.5t-118.5 50.5q-72 0 -121 -48 t-49 -120q0 -52 28.5 -88.5t74.5 -58t101.5 -41t111 -45.5t101.5 -61t74.5 -97t28.5 -146q0 -159 -96 -250.5t-256 -91.5q-151 0 -247.5 97.5t-96.5 248.5z" />
<glyph unicode="t" horiz-adv-x="694" d="M29 991v129h235v396h144v-396h268v-129h-268v-991h-144v991h-235z" />
<glyph unicode="u" horiz-adv-x="1245" d="M127 502v618h143v-616q0 -402 340 -402q141 0 238 91q68 66 92.5 145.5t24.5 189.5v592h143v-1120h-135v174h-4q-32 -66 -89.5 -112.5t-126 -67.5t-143.5 -21q-115 0 -217 42t-168 126q-98 123 -98 361z" />
<glyph unicode="v" d="M14 1120h154l395 -942l402 942h153l-473 -1120h-158z" />
<glyph unicode="w" horiz-adv-x="1701" d="M27 1120h149l352 -938h4l256 803h125l258 -803h5l356 938h147l-428 -1120h-161l-238 745h-4l-234 -745h-161z" />
<glyph unicode="x" horiz-adv-x="983" d="M25 0l383 569l-383 551h172l295 -432l292 432h174l-383 -551l383 -569h-170l-296 449l-297 -449h-170z" />
<glyph unicode="y" horiz-adv-x="1097" d="M31 1120h151l357 -893l381 893h151l-649 -1513h-150l195 430z" />
<glyph unicode="z" horiz-adv-x="870" d="M20 0v125l621 866h-600v129h772v-129l-614 -862h651v-129h-830z" />
<glyph unicode="{" horiz-adv-x="718" d="M143 498v131q84 4 133.5 80t49.5 165v373q0 110 56 189.5t161 79.5h135v-123h-103q-98 0 -98 -176v-375q0 -92 -47 -172.5t-131 -102.5v-6q36 -6 72 -31q106 -73 106 -243v-375q0 -176 98 -176h103v-123h-135q-105 0 -161 79t-56 189v373q0 58 -19 110.5t-62 91.5 t-102 42z" />
<glyph unicode="|" horiz-adv-x="1376" d="M612 -455v2048h152v-2048h-152z" />
<glyph unicode="}" horiz-adv-x="718" d="M41 -264h102q99 0 99 176v375q0 170 106 243q36 25 72 31v6q-84 22 -131 102.5t-47 172.5v375q0 176 -99 176h-102v123h135q105 0 161 -79.5t56 -189.5v-373q0 -89 49 -165t133 -80v-131q-59 -3 -102 -42t-61.5 -91.5t-18.5 -110.5v-373q0 -110 -56 -189t-161 -79h-135 v123z" />
<glyph unicode="~" horiz-adv-x="1241" d="M147 469q90 176 256 176q53 0 121.5 -23t121.5 -50.5t108 -50.5t86 -23q14 0 27 3t25.5 10t22 13t22 19t19 19.5t18.5 23.5t16 22.5t16 24t14 20.5l74 -102q-30 -42 -51.5 -67.5t-53.5 -53.5t-69.5 -41.5t-81.5 -13.5q-55 0 -115.5 23t-106 50.5t-107 50.5t-116.5 23 q-60 0 -100 -43t-72 -112z" />
<glyph unicode="&#xa1;" horiz-adv-x="604" d="M225 -393v1120h152v-1120h-152zM225 864v258h152v-258h-152z" />
<glyph unicode="&#xa2;" d="M98 784q0 177 115 308t291 157v199h151v-197q133 -17 237.5 -98t151.5 -205h-165q-94 172 -295 172q-136 0 -235 -99.5t-99 -236.5t99 -236t235 -99q187 0 278 147h170q-49 -116 -150 -190t-227 -89v-190h-151v192q-176 26 -291 157t-115 308z" />
<glyph unicode="&#xa3;" d="M8 715v129h121q-45 106 -45 200q0 210 136 354t345 144q190 0 327 -122.5t159 -311.5h-148q-22 133 -114 219t-224 86q-151 0 -240 -107t-89 -262q0 -63 12.5 -106t46.5 -94h584v-129h-461v-4q168 -148 168 -342q0 -42 -10.5 -87.5t-19.5 -70.5t-32 -82h88q78 0 143 18 t116 54.5t79.5 98.5t28.5 144q0 26 -18 105h151q18 -59 18 -115q0 -94 -34 -172q-111 -262 -478 -262h-559v129h303q72 112 72 238q0 48 -11 88t-35.5 75.5t-45.5 60t-58.5 62.5t-58.5 62h-217z" />
<glyph unicode="&#xa4;" horiz-adv-x="1179" d="M53 1151l84 84l166 -166q127 102 287 102q157 0 284 -100l164 164l84 -84l-161 -164q102 -127 102 -287q0 -157 -105 -284l164 -162l-84 -84l-159 160q-135 -101 -289 -101q-158 0 -289 101l-162 -160l-84 84l164 162q-102 127 -102 284q0 167 102 287zM262 698 q0 -131 98 -226t230 -95t228.5 95.5t96.5 227.5q0 134 -96 230t-229 96q-135 0 -231.5 -96.5t-96.5 -231.5z" />
<glyph unicode="&#xa5;" d="M8 1516h164l397 -666l394 666h163l-370 -621h311v-129h-389l-35 -53v-119h424v-131h-424v-463h-151v465h-424v129h424v119l-35 53h-389v129h311z" />
<glyph unicode="&#xa6;" horiz-adv-x="1376" d="M612 -301v717h152v-717h-152zM612 723v717h152v-717h-152z" />
<glyph unicode="&#xa7;" horiz-adv-x="1259" d="M174 711q0 93 47.5 161t134.5 134q-82 85 -82 206q0 98 52 174.5t134.5 116t178.5 39.5q150 0 249 -77.5t99 -223.5h-151q0 80 -57 122t-140 42q-95 0 -154 -53t-59 -146q0 -114 117 -172q76 -39 301 -149q58 -29 96.5 -54.5t73.5 -62t52 -84.5t17 -109q0 -77 -48.5 -155 t-116.5 -121q106 -90 106 -244q0 -100 -56 -180t-143.5 -122t-185.5 -42q-182 0 -296 118.5t-120 301.5h152q8 -127 75 -205t189 -78q94 0 163.5 57.5t69.5 149.5q0 45 -13 79.5t-42 61.5t-55.5 44t-73.5 41q-53 28 -158.5 81.5t-158.5 81.5q-93 48 -145 111t-52 156z M326 719q0 -104 106 -156l385 -192q52 31 83.5 86.5t31.5 115.5q0 113 -127 177l-359 178q-55 -32 -87.5 -89t-32.5 -120z" />
<glyph unicode="&#xa8;" horiz-adv-x="755" d="M150 1268v258h151v-258h-151zM453 1268v258h151v-258h-151z" />
<glyph unicode="&#xa9;" horiz-adv-x="1529" d="M-18 758q0 160 62 305t167.5 249.5t250.5 166t304 61.5t303.5 -62t249 -167t166 -250t61.5 -303q0 -212 -104.5 -392t-284.5 -285.5t-391 -105.5q-159 0 -304 62t-250.5 166.5t-167.5 249.5t-62 305zM94 758q0 -137 52.5 -262t141.5 -216.5t213.5 -145.5t262.5 -54 t262.5 54t213.5 145.5t141.5 216.5t52.5 262t-52.5 262t-141.5 216.5t-213.5 145.5t-262.5 54t-262.5 -54t-213.5 -145t-141.5 -216t-52.5 -263zM336 760q0 201 120 334t320 133q145 0 260.5 -85.5t132.5 -226.5h-112q-46 207 -281 207q-157 0 -242 -101t-85 -261t85 -261.5 t242 -101.5q235 0 281 207h112q-17 -140 -132.5 -225.5t-260.5 -85.5q-200 0 -320 133t-120 334z" />
<glyph unicode="&#xaa;" horiz-adv-x="888" d="M61 1190q0 148 107.5 250t255.5 102q172 0 246 -123h4v107h123v-676h-123v106h-4q-71 -122 -246 -122q-148 0 -255.5 104.5t-107.5 251.5zM184 1186q0 -99 73.5 -168.5t172.5 -69.5q106 0 178 68t72 174q0 101 -74 169t-176 68t-174 -70t-72 -171z" />
<glyph unicode="&#xab;" horiz-adv-x="870" d="M82 578l231 407l121 -63l-192 -344l192 -345l-121 -67zM438 578l232 407l121 -63l-195 -344l195 -345l-121 -67z" />
<glyph unicode="&#xac;" horiz-adv-x="1241" d="M104 655v140h1033v-572h-140v432h-893z" />
<glyph unicode="&#xad;" horiz-adv-x="679" d="M61 508v137h557v-137h-557z" />
<glyph unicode="&#xae;" horiz-adv-x="1529" d="M-18 758q0 160 62 305t167.5 249.5t250.5 166t304 61.5t303.5 -62t249 -167t166 -250t61.5 -303q0 -212 -104.5 -392t-284.5 -285.5t-391 -105.5q-159 0 -304 62t-250.5 166.5t-167.5 249.5t-62 305zM94 758q0 -137 52.5 -262t141.5 -216.5t213.5 -145.5t262.5 -54 t262.5 54t213.5 145.5t141.5 216.5t52.5 262t-52.5 262t-141.5 216.5t-213.5 145.5t-262.5 54t-262.5 -54t-213.5 -145t-141.5 -216t-52.5 -263zM430 303v895h385q85 0 151 -22t111 -78.5t45 -143.5q0 -85 -42 -141t-124 -76v-4q86 -25 115.5 -75.5t34.5 -147.5 q0 -7 0.5 -37.5t1.5 -47t4 -42.5t8.5 -45.5t14.5 -34.5h-113q-8 12 -13 27t-7.5 37.5t-3.5 32.5t-2 39t-1 30q-3 128 -49.5 170.5t-179.5 42.5h-223v-379h-113zM543 784h237q45 0 82.5 7.5t72.5 24.5t55 50.5t20 81.5q0 146 -222 146h-245v-310z" />
<glyph unicode="&#xaf;" horiz-adv-x="993" d="M150 1288v137h692v-137h-692z" />
<glyph unicode="&#xb0;" horiz-adv-x="819" d="M115 1157q0 123 86 209t209 86t209 -86t86 -209t-86 -209t-209 -86t-209 86t-86 209zM217 1157q0 -82 55.5 -137t137.5 -55t137 55t55 137t-55 137.5t-137 55.5t-137.5 -55.5t-55.5 -137.5z" />
<glyph unicode="&#xb1;" horiz-adv-x="1241" d="M104 -49v139h1033v-139h-1033zM104 557v139h447v365h139v-365h447v-139h-447v-364h-139v364h-447z" />
<glyph unicode="&#xb2;" horiz-adv-x="720" d="M45 862v101l324 301q3 3 23 20.5t26 23t24 22.5t25 26t21 25.5t20 29t13.5 28.5t10.5 32t3 32q0 71 -53.5 121.5t-125.5 50.5q-94 0 -137 -60t-43 -159h-123v10q0 144 83 232t224 88q122 0 209.5 -82t87.5 -203q0 -46 -12.5 -86t-40.5 -77t-50 -60.5t-65 -63.5l-264 -241 h430v-111h-610z" />
<glyph unicode="&#xb3;" horiz-adv-x="712" d="M49 1167h123q0 -93 51.5 -151t136.5 -58q82 0 131.5 52t49.5 135q0 60 -42 107t-102 61q-37 8 -116 8v111h49q62 0 106.5 29.5t44.5 88.5q0 62 -37.5 93.5t-89.5 31.5q-60 0 -90.5 -45.5t-30.5 -107.5h-122q2 116 68 190t179 74q107 0 176.5 -68.5t69.5 -171.5 q0 -54 -20 -91t-64 -73q144 -89 144 -235q0 -127 -88.5 -213t-215.5 -86q-141 0 -224.5 88t-86.5 231z" />
<glyph unicode="&#xb4;" horiz-adv-x="768" d="M160 1346l407 223l66 -123l-406 -219z" />
<glyph unicode="&#xb5;" horiz-adv-x="1245" d="M131 -393v1513h143v-616q0 -402 340 -402q144 0 238 91q68 66 92.5 145t24.5 190v592h143v-1120h-135v174h-4q-32 -66 -89.5 -112.5t-126 -67.5t-143.5 -21q-111 0 -196 31.5t-144 110.5v-508h-143z" />
<glyph unicode="&#xb6;" horiz-adv-x="1155" d="M45 1110q0 104 47 195.5t133 144.5q54 35 143.5 50.5t174.5 15.5h585v-115h-131v-1626h-127v1626h-245v-1626h-127v938h-35q-180 0 -299 109.5t-119 287.5z" />
<glyph unicode="&#xb7;" horiz-adv-x="567" d="M209 389v258h151v-258h-151z" />
<glyph unicode="&#xb8;" horiz-adv-x="663" d="M162 -297l86 4q6 -36 32 -61t62 -25q44 0 69 31t25 76q0 47 -26 71.5t-72 24.5q-49 0 -82 -39l-74 43l94 178l86 -6l-57 -115q35 9 68 9q68 0 107.5 -53t39.5 -124q0 -79 -54 -125.5t-134 -46.5q-69 0 -114 44t-56 114z" />
<glyph unicode="&#xb9;" horiz-adv-x="438" d="M29 1661v111h276v-910h-123v799h-153z" />
<glyph unicode="&#xba;" horiz-adv-x="827" d="M61 1182q0 149 102.5 254.5t250.5 105.5q145 0 248.5 -103.5t103.5 -248.5q0 -147 -102.5 -251.5t-249.5 -104.5q-143 0 -248 102t-105 246zM184 1186q0 -99 66.5 -168.5t165.5 -69.5q101 0 164 70t63 172q0 97 -65 167t-162 70q-100 0 -166 -70.5t-66 -170.5z" />
<glyph unicode="&#xbb;" horiz-adv-x="870" d="M80 233l192 345l-192 344l119 63l233 -407l-233 -412zM436 233l193 345l-193 344l119 63l233 -407l-233 -412z" />
<glyph unicode="&#xbc;" horiz-adv-x="1300" d="M29 1405v111h276v-910h-123v799h-153zM147 0l682 1516h123l-682 -1516h-123zM569 160v100l449 649h133v-639h84v-110h-84v-160h-121v160h-461zM721 270h309v455h-4z" />
<glyph unicode="&#xbd;" horiz-adv-x="1400" d="M29 1405v111h276v-910h-123v799h-153zM147 0l682 1516h123l-682 -1516h-123zM725 0v100l324 301q1 1 20.5 18.5t23 20.5t21.5 20t23 23.5t19.5 22.5t19.5 25t14.5 25t13 28t7 27t3.5 30q0 71 -53.5 121.5t-124.5 50.5q-94 0 -137 -60t-43 -159h-123v10q0 144 83 232 t224 88q122 0 209.5 -82t87.5 -203q0 -46 -12.5 -86t-40.5 -77t-50 -60.5t-65 -63.5l-264 -241h430v-111h-610z" />
<glyph unicode="&#xbe;" horiz-adv-x="1605" d="M49 911h123q0 -93 51.5 -151t136.5 -58q82 0 131.5 52t49.5 135q0 60 -42 107t-102 61q-37 8 -116 8v111h49q62 0 106.5 29.5t44.5 88.5q0 62 -37.5 93.5t-89.5 31.5q-60 0 -90.5 -45.5t-30.5 -107.5h-122q2 116 68 190t179 74q107 0 176.5 -68.5t69.5 -171.5 q0 -54 -20 -91t-64 -73q144 -89 144 -235q0 -127 -88.5 -213t-215.5 -86q-141 0 -224.5 88t-86.5 231zM453 0l682 1516h122l-682 -1516h-122zM874 160v100l449 649h133v-639h84v-110h-84v-160h-121v160h-461zM1026 270h309v455h-4z" />
<glyph unicode="&#xbf;" horiz-adv-x="1210" d="M133 35q0 66 20.5 123t53.5 99.5t73 82.5t81 80.5t75 83t57.5 100t26.5 123.5h152v-8q0 -74 -21.5 -139.5t-55.5 -113t-75.5 -91t-82.5 -82.5t-75 -77.5t-55.5 -85.5t-21.5 -99q0 -127 95.5 -217t223.5 -90q85 0 158 39.5t119 109.5q31 48 39 92t8 115h151v-39 q0 -127 -67 -233.5t-177.5 -167t-236.5 -60.5q-196 0 -330.5 130t-134.5 325zM520 864v258h152v-258h-152z" />
<glyph unicode="&#xc0;" horiz-adv-x="1515" d="M25 0l647 1516h170l651 -1516h-166l-219 510h-705l-221 -510h-157zM461 647h588l-291 696zM512 1821l66 123l407 -224l-67 -118z" />
<glyph unicode="&#xc1;" horiz-adv-x="1515" d="M25 0l647 1516h170l651 -1516h-166l-219 510h-705l-221 -510h-157zM461 647h588l-291 696zM535 1720l407 224l66 -123l-406 -219z" />
<glyph unicode="&#xc2;" horiz-adv-x="1515" d="M25 0l647 1516h170l651 -1516h-166l-219 510h-705l-221 -510h-157zM395 1642l297 256h135l293 -256h-182l-176 150l-180 -150h-187zM461 647h588l-291 696z" />
<glyph unicode="&#xc3;" horiz-adv-x="1515" d="M25 0l647 1516h170l651 -1516h-166l-219 510h-705l-221 -510h-157zM406 1772q92 86 212 86q63 0 155 -42t136 -42q10 0 20 1.5t20.5 5t17.5 6t19 9.5t16.5 9.5t18.5 11t17 10.5l74 -101q-106 -79 -201 -79q-52 0 -106.5 21t-103.5 42t-87 21q-71 0 -137 -62zM461 647h588 l-291 696z" />
<glyph unicode="&#xc4;" horiz-adv-x="1515" d="M25 0l647 1516h170l651 -1516h-166l-219 510h-705l-221 -510h-157zM461 647h588l-291 696zM530 1642v259h152v-259h-152zM834 1642v259h151v-259h-151z" />
<glyph unicode="&#xc5;" horiz-adv-x="1515" d="M25 0l647 1516h170l651 -1516h-166l-219 510h-705l-221 -510h-157zM461 647h588l-291 696zM545 1743q0 87 62 150t149 63q89 0 151 -62t62 -151q0 -88 -62.5 -149.5t-150.5 -61.5q-86 0 -148.5 62.5t-62.5 148.5zM651 1743q0 -43 31 -74t74 -31t74.5 30.5t31.5 74.5 t-31 75t-75 31q-43 0 -74 -31.5t-31 -74.5z" />
<glyph unicode="&#xc6;" horiz-adv-x="2031" d="M-41 0l1055 1516h844v-138h-650v-544h627v-138h-627v-559h650v-137h-801v512h-559l-357 -512h-182zM594 649h463v672h-4z" />
<glyph unicode="&#xc7;" horiz-adv-x="1665" d="M88 756q0 217 105.5 397.5t287 283.5t398.5 103q172 0 328 -70.5t270 -199.5q64 -71 96 -144h-170q-87 130 -227.5 203.5t-298.5 73.5q-170 0 -317.5 -90t-233.5 -239.5t-86 -319.5q0 -125 52 -243.5t138.5 -206t204.5 -140.5t244 -53q159 0 294 76t236 210h170 q-105 -194 -292.5 -309t-405.5 -115q-5 0 -16.5 1t-16.5 1l-43 -90q35 9 67 9q68 0 108 -53t40 -124q0 -79 -54.5 -125.5t-134.5 -46.5q-68 0 -113 44t-56 114l86 4q6 -36 32 -61t62 -25q44 0 69 31t25 76q0 47 -26 71.5t-72 24.5q-49 0 -82 -39l-74 43l82 156 q-189 26 -343 133t-243.5 275t-89.5 364z" />
<glyph unicode="&#xc8;" horiz-adv-x="1097" d="M143 0v1516h830v-138h-678v-544h655v-138h-655v-559h678v-137h-830zM303 1821l66 123l407 -224l-67 -118z" />
<glyph unicode="&#xc9;" horiz-adv-x="1097" d="M143 0v1516h830v-138h-678v-544h655v-138h-655v-559h678v-137h-830zM326 1720l407 224l66 -123l-406 -219z" />
<glyph unicode="&#xca;" horiz-adv-x="1097" d="M143 0v1516h830v-138h-678v-544h655v-138h-655v-559h678v-137h-830zM186 1642l297 256h135l293 -256h-182l-176 150l-180 -150h-187z" />
<glyph unicode="&#xcb;" horiz-adv-x="1097" d="M143 0v1516h830v-138h-678v-544h655v-138h-655v-559h678v-137h-830zM322 1642v259h151v-259h-151zM625 1642v259h151v-259h-151z" />
<glyph unicode="&#xcc;" horiz-adv-x="462" d="M-96 1821l65 123l408 -224l-68 -118zM156 0v1516h151v-1516h-151z" />
<glyph unicode="&#xcd;" horiz-adv-x="462" d="M88 1720l408 224l65 -123l-405 -219zM156 0v1516h151v-1516h-151z" />
<glyph unicode="&#xce;" horiz-adv-x="462" d="M-131 1642l297 256h135l293 -256h-182l-176 150l-181 -150h-186zM156 0v1516h151v-1516h-151z" />
<glyph unicode="&#xcf;" horiz-adv-x="462" d="M4 1642v259h152v-259h-152zM156 0v1516h151v-1516h-151zM307 1642v259h152v-259h-152z" />
<glyph unicode="&#xd0;" horiz-adv-x="1658" d="M123 711v137h151v668h435q179 0 327.5 -46t270.5 -152.5t188 -268.5q59 -147 59 -295q0 -144 -57 -287q-65 -163 -185 -269.5t-267.5 -152t-327.5 -45.5h-443v711h-151zM426 137h252q157 0 270.5 24t216.5 99q114 82 176 218t62 282q0 151 -68 284.5t-190 217.5 q-102 71 -220.5 93.5t-279.5 22.5h-219v-530h430v-137h-430v-574z" />
<glyph unicode="&#xd1;" horiz-adv-x="1515" d="M154 0v1516h204l846 -1258h4v1258h152v-1516h-152l-899 1333h-4v-1333h-151zM406 1772q92 86 212 86q63 0 155 -42t136 -42q10 0 20 1.5t20.5 5t17.5 6t19 9.5t16.5 9.5t18.5 11t17 10.5l74 -101q-106 -79 -201 -79q-52 0 -106.5 21t-103.5 42t-87 21q-71 0 -137 -62z " />
<glyph unicode="&#xd2;" horiz-adv-x="1779" d="M88 750q0 217 108 399.5t292 287.5t401 105q160 0 308 -61.5t256.5 -165.5t173.5 -250t65 -307t-65 -307t-174 -250.5t-256.5 -166t-307.5 -61.5q-157 0 -304 61.5t-256 164.5t-175 248t-66 303zM240 750q0 -171 89 -319t239 -234t321 -86q174 0 324 86.5t238.5 235 t88.5 323.5t-88 324.5t-238 237t-325 87.5q-177 0 -326.5 -88.5t-236 -239.5t-86.5 -327zM645 1821l66 123l407 -224l-67 -118z" />
<glyph unicode="&#xd3;" horiz-adv-x="1779" d="M88 750q0 217 108 399.5t292 287.5t401 105q160 0 308 -61.5t256.5 -165.5t173.5 -250t65 -307t-65 -307t-174 -250.5t-256.5 -166t-307.5 -61.5q-157 0 -304 61.5t-256 164.5t-175 248t-66 303zM240 750q0 -171 89 -319t239 -234t321 -86q174 0 324 86.5t238.5 235 t88.5 323.5t-88 324.5t-238 237t-325 87.5q-177 0 -326.5 -88.5t-236 -239.5t-86.5 -327zM748 1720l407 224l66 -123l-406 -219z" />
<glyph unicode="&#xd4;" horiz-adv-x="1779" d="M88 750q0 217 108 399.5t292 287.5t401 105q160 0 308 -61.5t256.5 -165.5t173.5 -250t65 -307t-65 -307t-174 -250.5t-256.5 -166t-307.5 -61.5q-157 0 -304 61.5t-256 164.5t-175 248t-66 303zM240 750q0 -171 89 -319t239 -234t321 -86q174 0 324 86.5t238.5 235 t88.5 323.5t-88 324.5t-238 237t-325 87.5q-177 0 -326.5 -88.5t-236 -239.5t-86.5 -327zM528 1642l297 256h136l292 -256h-182l-176 150l-180 -150h-187z" />
<glyph unicode="&#xd5;" horiz-adv-x="1779" d="M88 750q0 217 108 399.5t292 287.5t401 105q160 0 308 -61.5t256.5 -165.5t173.5 -250t65 -307t-65 -307t-174 -250.5t-256.5 -166t-307.5 -61.5q-157 0 -304 61.5t-256 164.5t-175 248t-66 303zM240 750q0 -171 89 -319t239 -234t321 -86q174 0 324 86.5t238.5 235 t88.5 323.5t-88 324.5t-238 237t-325 87.5q-177 0 -326.5 -88.5t-236 -239.5t-86.5 -327zM537 1772q92 86 213 86q63 0 154.5 -42t135.5 -42q10 0 20 1.5t20.5 5t17.5 6t19 9.5t16.5 9.5t18.5 11t17 10.5l74 -101q-106 -79 -201 -79q-52 0 -106.5 21t-103.5 42t-87 21 q-71 0 -137 -62z" />
<glyph unicode="&#xd6;" horiz-adv-x="1779" d="M88 750q0 217 108 399.5t292 287.5t401 105q160 0 308 -61.5t256.5 -165.5t173.5 -250t65 -307t-65 -307t-174 -250.5t-256.5 -166t-307.5 -61.5q-157 0 -304 61.5t-256 164.5t-175 248t-66 303zM240 750q0 -171 89 -319t239 -234t321 -86q174 0 324 86.5t238.5 235 t88.5 323.5t-88 324.5t-238 237t-325 87.5q-177 0 -326.5 -88.5t-236 -239.5t-86.5 -327zM662 1642v259h151v-259h-151zM965 1642v259h151v-259h-151z" />
<glyph unicode="&#xd7;" horiz-adv-x="1241" d="M152 147l372 373l-370 369l98 98l371 -369l368 369l99 -98l-369 -369l371 -373l-99 -98l-370 373l-373 -373z" />
<glyph unicode="&#xd8;" horiz-adv-x="1777" d="M88 758q0 160 65 306t173.5 250t256 166t306.5 62q221 0 418 -117l188 252l113 -82l-189 -252q131 -116 202 -266t71 -319q0 -161 -65 -307t-174 -250.5t-256.5 -166t-307.5 -61.5q-220 0 -412 115l-192 -258l-113 82l190 258q-129 114 -201.5 267t-72.5 321zM240 756 q0 -135 54.5 -257.5t154.5 -213.5l772 1028q-157 92 -332 92q-130 0 -250 -52t-207.5 -139.5t-139.5 -207.5t-52 -250zM561 201q158 -90 330 -90q130 0 249.5 51.5t207 138t140 206t52.5 249.5q0 272 -207 473z" />
<glyph unicode="&#xd9;" horiz-adv-x="1341" d="M154 571v945h151v-945q0 -182 51 -274q103 -186 314 -186q210 0 313 186q51 92 51 274v945h152v-945q0 -191 -58 -315q-64 -136 -184.5 -209.5t-273.5 -73.5t-274 73.5t-185 209.5q-57 122 -57 315zM385 1821l66 123l407 -224l-67 -118z" />
<glyph unicode="&#xda;" horiz-adv-x="1341" d="M154 571v945h151v-945q0 -182 51 -274q103 -186 314 -186q210 0 313 186q51 92 51 274v945h152v-945q0 -191 -58 -315q-64 -136 -184.5 -209.5t-273.5 -73.5t-274 73.5t-185 209.5q-57 122 -57 315zM487 1720l408 224l66 -123l-406 -219z" />
<glyph unicode="&#xdb;" horiz-adv-x="1341" d="M154 571v945h151v-945q0 -182 51 -274q103 -186 314 -186q210 0 313 186q51 92 51 274v945h152v-945q0 -191 -58 -315q-64 -136 -184.5 -209.5t-273.5 -73.5t-274 73.5t-185 209.5q-57 122 -57 315zM309 1642l297 256h135l293 -256h-182l-176 150l-180 -150h-187z" />
<glyph unicode="&#xdc;" horiz-adv-x="1341" d="M154 571v945h151v-945q0 -182 51 -274q103 -186 314 -186q210 0 313 186q51 92 51 274v945h152v-945q0 -191 -58 -315q-64 -136 -184.5 -209.5t-273.5 -73.5t-274 73.5t-185 209.5q-57 122 -57 315zM442 1642v259h152v-259h-152zM745 1642v259h152v-259h-152z" />
<glyph unicode="&#xdd;" horiz-adv-x="1212" d="M2 1516h168l432 -850l445 850h165l-532 -1010v-506h-152v506zM424 1720l407 224l66 -123l-405 -219z" />
<glyph unicode="&#xde;" horiz-adv-x="1212" d="M123 0v1516h151v-306h271q123 0 218 -17.5t173 -70.5q91 -62 139.5 -157t48.5 -207t-48.5 -207.5t-139.5 -157.5q-78 -53 -173 -70.5t-218 -17.5h-271v-305h-151zM274 442h263q66 0 94 1t77 10t89 28q85 40 130.5 111.5t45.5 165.5t-45.5 165t-130.5 111q-40 19 -89 28 t-77 10t-94 1h-263v-631z" />
<glyph unicode="&#xdf;" d="M125 0v985q0 80 3 130t19.5 120.5t49.5 118.5q57 86 153 137t199 51q186 0 303 -121t117 -307q0 -218 -181 -315q137 -47 212 -146t75 -243q0 -189 -119 -313t-307 -124q-129 0 -231.5 65.5t-145.5 184.5h-4v-223h-143zM268 416h105q3 -125 78 -219.5t196 -94.5 q122 0 203.5 85t81.5 208q0 143 -94 221q-60 52 -134 68t-176 16h-69v138q76 0 139 14.5t115.5 47t82 90.5t29.5 138q0 123 -77 204t-199 81q-72 0 -133.5 -36t-96.5 -99q-23 -42 -35 -96.5t-14 -94t-2 -102.5v-569z" />
<glyph unicode="&#xe0;" horiz-adv-x="1398" d="M86 563q0 164 81.5 299.5t219.5 211t301 75.5q136 0 251 -57t185 -168h4v196h144v-1120h-144v197h-4q-72 -108 -187.5 -166t-248.5 -58q-166 0 -304 76.5t-218 212t-80 301.5zM229 557q0 -196 131 -325.5t328 -129.5q189 0 319 134t130 323q0 124 -58.5 229.5 t-162.5 168.5t-228 63q-199 0 -329 -132t-130 -331zM455 1487l65 123l408 -224l-68 -118z" />
<glyph unicode="&#xe1;" horiz-adv-x="1398" d="M86 563q0 164 81.5 299.5t219.5 211t301 75.5q136 0 251 -57t185 -168h4v196h144v-1120h-144v197h-4q-72 -108 -187.5 -166t-248.5 -58q-166 0 -304 76.5t-218 212t-80 301.5zM229 557q0 -196 131 -325.5t328 -129.5q189 0 319 134t130 323q0 124 -58.5 229.5 t-162.5 168.5t-228 63q-199 0 -329 -132t-130 -331zM475 1386l408 224l65 -123l-405 -219z" />
<glyph unicode="&#xe2;" horiz-adv-x="1398" d="M86 563q0 164 81.5 299.5t219.5 211t301 75.5q136 0 251 -57t185 -168h4v196h144v-1120h-144v197h-4q-72 -108 -187.5 -166t-248.5 -58q-166 0 -304 76.5t-218 212t-80 301.5zM229 557q0 -196 131 -325.5t328 -129.5q189 0 319 134t130 323q0 124 -58.5 229.5 t-162.5 168.5t-228 63q-199 0 -329 -132t-130 -331zM338 1309l297 256h135l293 -256h-182l-176 149l-181 -149h-186z" />
<glyph unicode="&#xe3;" horiz-adv-x="1398" d="M86 563q0 164 81.5 299.5t219.5 211t301 75.5q136 0 251 -57t185 -168h4v196h144v-1120h-144v197h-4q-72 -108 -187.5 -166t-248.5 -58q-166 0 -304 76.5t-218 212t-80 301.5zM229 557q0 -196 131 -325.5t328 -129.5q189 0 319 134t130 323q0 124 -58.5 229.5 t-162.5 168.5t-228 63q-199 0 -329 -132t-130 -331zM346 1458q92 86 213 86q63 0 155 -42t136 -42q10 0 20 1.5t20.5 5t17.5 6t19 9.5t16.5 9.5t18.5 11t17 10.5l74 -100q-107 -80 -201 -80q-52 0 -106.5 21t-103.5 42t-87 21q-73 0 -137 -61z" />
<glyph unicode="&#xe4;" horiz-adv-x="1398" d="M86 563q0 164 81.5 299.5t219.5 211t301 75.5q136 0 251 -57t185 -168h4v196h144v-1120h-144v197h-4q-72 -108 -187.5 -166t-248.5 -58q-166 0 -304 76.5t-218 212t-80 301.5zM229 557q0 -196 131 -325.5t328 -129.5q189 0 319 134t130 323q0 124 -58.5 229.5 t-162.5 168.5t-228 63q-199 0 -329 -132t-130 -331zM471 1309v258h152v-258h-152zM774 1309v258h152v-258h-152z" />
<glyph unicode="&#xe5;" horiz-adv-x="1398" d="M86 563q0 164 81.5 299.5t219.5 211t301 75.5q136 0 251 -57t185 -168h4v196h144v-1120h-144v197h-4q-72 -108 -187.5 -166t-248.5 -58q-166 0 -304 76.5t-218 212t-80 301.5zM229 557q0 -196 131 -325.5t328 -129.5q189 0 319 134t130 323q0 124 -58.5 229.5 t-162.5 168.5t-228 63q-199 0 -329 -132t-130 -331zM487 1440q0 87 62 150t149 63q89 0 151 -62t62 -151q0 -88 -62.5 -149.5t-150.5 -61.5q-86 0 -148.5 62.5t-62.5 148.5zM594 1440q0 -43 30.5 -74t73.5 -31t75 30.5t32 74.5t-31.5 75t-75.5 31q-43 0 -73.5 -31.5 t-30.5 -74.5z" />
<glyph unicode="&#xe6;" horiz-adv-x="2369" d="M70 557q0 110 47 223q72 172 219 270.5t334 98.5q143 0 259.5 -58.5t182.5 -177.5h4v207h144v-207h4q58 108 182.5 172t253.5 64q121 0 229.5 -49t185 -131t121.5 -192.5t45 -229.5q0 -7 -1 -20.5t-1 -20.5h-1013q15 -169 140.5 -286.5t295.5 -117.5q128 0 241.5 72.5 t155.5 190.5h144q-52 -172 -206.5 -282t-334.5 -110q-130 0 -250 61.5t-188 168.5h-4v-203h-144v203h-4q-151 -230 -444 -230q-185 0 -332 95.5t-219 265.5q-47 113 -47 223zM213 553q0 -123 61.5 -227t166.5 -164t227 -60q193 0 323.5 130.5t130.5 324.5q0 195 -128.5 329 t-323.5 134q-125 0 -230.5 -63.5t-166 -171t-60.5 -232.5zM1266 635h870q-27 167 -147.5 276t-286.5 109q-167 0 -288 -109.5t-148 -275.5z" />
<glyph unicode="&#xe7;" horiz-adv-x="1325" d="M84 559q0 162 81.5 298t220 214t300.5 78q186 0 337.5 -98.5t219.5 -268.5h-158q-59 111 -164 174.5t-231 63.5t-232.5 -60t-168.5 -165t-62 -232q0 -195 134 -328t329 -133q127 0 232.5 59t162.5 169h158q-182 -349 -545 -355l-45 -90q26 9 68 9q68 0 107.5 -53 t39.5 -124q0 -79 -54 -125.5t-134 -46.5q-69 0 -114 44t-56 114l86 4q6 -36 32 -61t62 -25q44 0 69 31t25 76q0 47 -26 71.5t-72 24.5q-56 0 -82 -39l-74 43l80 152q-148 15 -268.5 95.5t-189 208t-68.5 275.5z" />
<glyph unicode="&#xe8;" horiz-adv-x="1331" d="M78 559q0 157 77.5 293t211.5 216.5t292 80.5q161 0 296.5 -82t213.5 -220t78 -298q0 -7 -1 -20.5t-1 -20.5h-1020q5 -108 67 -202t160.5 -149t206.5 -55q132 0 244.5 71.5t157.5 193.5h151q-62 -176 -213.5 -285t-336.5 -109q-159 0 -293.5 79t-212.5 213.5t-78 293.5z M225 637h875q-28 166 -149.5 274.5t-288.5 108.5q-166 0 -288.5 -108.5t-148.5 -274.5zM420 1487l65 123l408 -224l-68 -118z" />
<glyph unicode="&#xe9;" horiz-adv-x="1331" d="M78 559q0 157 77.5 293t211.5 216.5t292 80.5q161 0 296.5 -82t213.5 -220t78 -298q0 -7 -1 -20.5t-1 -20.5h-1020q5 -108 67 -202t160.5 -149t206.5 -55q132 0 244.5 71.5t157.5 193.5h151q-62 -176 -213.5 -285t-336.5 -109q-159 0 -293.5 79t-212.5 213.5t-78 293.5z M225 637h875q-28 166 -149.5 274.5t-288.5 108.5q-166 0 -288.5 -108.5t-148.5 -274.5zM442 1386l408 224l65 -123l-405 -219z" />
<glyph unicode="&#xea;" horiz-adv-x="1331" d="M78 559q0 157 77.5 293t211.5 216.5t292 80.5q161 0 296.5 -82t213.5 -220t78 -298q0 -7 -1 -20.5t-1 -20.5h-1020q5 -108 67 -202t160.5 -149t206.5 -55q132 0 244.5 71.5t157.5 193.5h151q-62 -176 -213.5 -285t-336.5 -109q-159 0 -293.5 79t-212.5 213.5t-78 293.5z M225 637h875q-28 166 -149.5 274.5t-288.5 108.5q-166 0 -288.5 -108.5t-148.5 -274.5zM303 1309l297 256h135l293 -256h-182l-176 149l-181 -149h-186z" />
<glyph unicode="&#xeb;" horiz-adv-x="1331" d="M78 559q0 157 77.5 293t211.5 216.5t292 80.5q161 0 296.5 -82t213.5 -220t78 -298q0 -7 -1 -20.5t-1 -20.5h-1020q5 -108 67 -202t160.5 -149t206.5 -55q132 0 244.5 71.5t157.5 193.5h151q-62 -176 -213.5 -285t-336.5 -109q-159 0 -293.5 79t-212.5 213.5t-78 293.5z M225 637h875q-28 166 -149.5 274.5t-288.5 108.5q-166 0 -288.5 -108.5t-148.5 -274.5zM438 1309v258h152v-258h-152zM741 1309v258h152v-258h-152z" />
<glyph unicode="&#xec;" horiz-adv-x="409" d="M-123 1487l66 123l407 -224l-67 -118zM133 0v1120h143v-1120h-143z" />
<glyph unicode="&#xed;" horiz-adv-x="409" d="M61 1386l408 224l66 -123l-406 -219zM133 0v1120h143v-1120h-143z" />
<glyph unicode="&#xee;" horiz-adv-x="409" d="M-158 1309l297 256h135l293 -256h-182l-176 149l-180 -149h-187zM133 0v1120h143v-1120h-143z" />
<glyph unicode="&#xef;" horiz-adv-x="409" d="M-23 1309v258h152v-258h-152zM133 0v1120h143v-1120h-143zM281 1309v258h151v-258h-151z" />
<glyph unicode="&#xf0;" horiz-adv-x="1341" d="M86 565q0 155 76.5 288t208.5 211.5t288 78.5q169 0 299 -94l5 4q-98 135 -299 254l-318 -125l-102 80l297 112q-134 69 -240 101l160 67q106 -32 244 -104l272 104l98 -76l-256 -100q438 -315 438 -780q0 -167 -74.5 -306.5t-210 -222t-302.5 -82.5q-161 0 -295.5 79 t-211.5 214.5t-77 296.5zM229 557q0 -122 57 -226t158.5 -165.5t223.5 -61.5q127 0 230 63.5t159.5 170.5t56.5 233q0 191 -130 317t-320 126q-91 0 -177 -39q-127 -56 -192.5 -165.5t-65.5 -252.5z" />
<glyph unicode="&#xf1;" horiz-adv-x="1249" d="M133 0v1120h143v-143h5q54 83 147 127.5t197 44.5q235 0 364 -147t129 -386v-616h-143v616q0 89 -25.5 172t-81.5 136q-104 96 -243 96q-140 0 -244 -96q-54 -52 -79.5 -132t-25.5 -165v-627h-143zM272 1458q92 86 213 86q63 0 155 -42t136 -42q10 0 20 1.5t20.5 5 t17.5 6t19 9.5t16.5 9.5t18.5 11t17 10.5l74 -100q-107 -80 -201 -80q-52 0 -106.5 21t-103.5 42t-87 21q-73 0 -137 -61z" />
<glyph unicode="&#xf2;" horiz-adv-x="1341" d="M86 553q0 160 77.5 297t212 218t294.5 81q157 0 292.5 -80t215 -215.5t79.5 -292.5q0 -158 -79 -293.5t-214.5 -215t-293.5 -79.5q-116 0 -224 46.5t-186.5 125t-126 185.5t-47.5 223zM229 555q0 -185 129.5 -319t313.5 -134q190 0 316 136.5t126 328.5 q0 184 -129.5 318.5t-312.5 134.5q-187 0 -315 -138t-128 -327zM426 1487l66 123l407 -224l-68 -118z" />
<glyph unicode="&#xf3;" horiz-adv-x="1341" d="M86 553q0 160 77.5 297t212 218t294.5 81q157 0 292.5 -80t215 -215.5t79.5 -292.5q0 -158 -79 -293.5t-214.5 -215t-293.5 -79.5q-116 0 -224 46.5t-186.5 125t-126 185.5t-47.5 223zM229 555q0 -185 129.5 -319t313.5 -134q190 0 316 136.5t126 328.5 q0 184 -129.5 318.5t-312.5 134.5q-187 0 -315 -138t-128 -327zM508 1386l407 224l66 -123l-406 -219z" />
<glyph unicode="&#xf4;" horiz-adv-x="1341" d="M86 553q0 160 77.5 297t212 218t294.5 81q157 0 292.5 -80t215 -215.5t79.5 -292.5q0 -158 -79 -293.5t-214.5 -215t-293.5 -79.5q-116 0 -224 46.5t-186.5 125t-126 185.5t-47.5 223zM229 555q0 -185 129.5 -319t313.5 -134q190 0 316 136.5t126 328.5 q0 184 -129.5 318.5t-312.5 134.5q-187 0 -315 -138t-128 -327zM309 1309l297 256h135l293 -256h-182l-176 149l-180 -149h-187z" />
<glyph unicode="&#xf5;" horiz-adv-x="1341" d="M86 553q0 160 77.5 297t212 218t294.5 81q157 0 292.5 -80t215 -215.5t79.5 -292.5q0 -158 -79 -293.5t-214.5 -215t-293.5 -79.5q-116 0 -224 46.5t-186.5 125t-126 185.5t-47.5 223zM229 555q0 -185 129.5 -319t313.5 -134q190 0 316 136.5t126 328.5 q0 184 -129.5 318.5t-312.5 134.5q-187 0 -315 -138t-128 -327zM317 1458q92 86 213 86q63 0 155 -42t136 -42q10 0 20 1.5t20.5 5t17.5 6t19 9.5t16.5 9.5t18.5 11t17 10.5l74 -100q-107 -80 -201 -80q-52 0 -106.5 21t-103.5 42t-87 21q-73 0 -137 -61z" />
<glyph unicode="&#xf6;" horiz-adv-x="1341" d="M86 553q0 160 77.5 297t212 218t294.5 81q157 0 292.5 -80t215 -215.5t79.5 -292.5q0 -158 -79 -293.5t-214.5 -215t-293.5 -79.5q-116 0 -224 46.5t-186.5 125t-126 185.5t-47.5 223zM229 555q0 -185 129.5 -319t313.5 -134q190 0 316 136.5t126 328.5 q0 184 -129.5 318.5t-312.5 134.5q-187 0 -315 -138t-128 -327zM442 1309v258h152v-258h-152zM745 1309v258h152v-258h-152z" />
<glyph unicode="&#xf7;" horiz-adv-x="1241" d="M104 449v139h1033v-139h-1033zM545 -27v258h151v-258h-151zM545 805v258h151v-258h-151z" />
<glyph unicode="&#xf8;" horiz-adv-x="1337" d="M84 553q0 160 77.5 297t212 218t294.5 81q161 0 295 -84l147 192l113 -83l-148 -193q85 -84 132.5 -193t47.5 -227q0 -158 -79 -293.5t-214.5 -215t-293.5 -79.5q-164 0 -297 86l-146 -190l-110 78l147 194q-84 83 -131 189.5t-47 222.5zM227 555q0 -178 119 -303 l537 706q-100 62 -213 62q-187 0 -315 -138t-128 -327zM453 166q98 -64 217 -64q190 0 316 136.5t126 328.5q0 183 -119 305z" />
<glyph unicode="&#xf9;" horiz-adv-x="1245" d="M127 502v618h143v-616q0 -402 340 -402q141 0 238 91q68 66 92.5 145.5t24.5 189.5v592h143v-1120h-135v174h-4q-32 -66 -89.5 -112.5t-126 -67.5t-143.5 -21q-115 0 -217 42t-168 126q-98 123 -98 361zM336 1487l65 123l408 -224l-68 -118z" />
<glyph unicode="&#xfa;" horiz-adv-x="1245" d="M127 502v618h143v-616q0 -402 340 -402q141 0 238 91q68 66 92.5 145.5t24.5 189.5v592h143v-1120h-135v174h-4q-32 -66 -89.5 -112.5t-126 -67.5t-143.5 -21q-115 0 -217 42t-168 126q-98 123 -98 361zM440 1386l408 224l65 -123l-405 -219z" />
<glyph unicode="&#xfb;" horiz-adv-x="1245" d="M127 502v618h143v-616q0 -402 340 -402q141 0 238 91q68 66 92.5 145.5t24.5 189.5v592h143v-1120h-135v174h-4q-32 -66 -89.5 -112.5t-126 -67.5t-143.5 -21q-115 0 -217 42t-168 126q-98 123 -98 361zM260 1309l297 256h135l293 -256h-182l-176 149l-181 -149h-186z " />
<glyph unicode="&#xfc;" horiz-adv-x="1245" d="M127 502v618h143v-616q0 -402 340 -402q141 0 238 91q68 66 92.5 145.5t24.5 189.5v592h143v-1120h-135v174h-4q-32 -66 -89.5 -112.5t-126 -67.5t-143.5 -21q-115 0 -217 42t-168 126q-98 123 -98 361zM395 1309v258h152v-258h-152zM698 1309v258h152v-258h-152z" />
<glyph unicode="&#xfd;" horiz-adv-x="1097" d="M31 1120h151l357 -893l381 893h151l-649 -1513h-150l195 430zM367 1386l407 224l66 -123l-406 -219z" />
<glyph unicode="&#xfe;" horiz-adv-x="1396" d="M131 -393v1909h143v-592h5q74 108 188.5 166.5t247.5 58.5q163 0 301 -75.5t219.5 -211t81.5 -299.5q0 -166 -80 -301.5t-218 -212t-304 -76.5q-132 0 -247.5 59t-188.5 165h-5v-590h-143zM266 559q0 -189 130 -323t319 -134q197 0 328 129.5t131 325.5q0 199 -130 331 t-329 132q-124 0 -228 -63t-162.5 -168.5t-58.5 -229.5z" />
<glyph unicode="&#xff;" horiz-adv-x="1097" d="M31 1120h151l357 -893l381 893h151l-649 -1513h-150l195 430zM322 1309v258h151v-258h-151zM625 1309v258h151v-258h-151z" />
<glyph unicode="&#x152;" horiz-adv-x="2445" d="M92 760q0 162 63 307.5t169.5 249t253 164.5t307.5 61q122 0 246 -36t235 -112.5t168 -179.5h4v302h801v-138h-649v-547h626v-137h-626v-557h649v-137h-801v309h-4q-56 -104 -161.5 -181.5t-227 -116t-242.5 -38.5q-224 0 -409 100t-293.5 281t-108.5 406zM244 766 q0 -133 49 -253.5t133 -208.5t203.5 -140.5t253.5 -52.5t255 50.5t209.5 136.5t140.5 207t52 255q0 176 -86.5 324.5t-235.5 234.5t-325 86q-177 0 -326 -84t-236 -231t-87 -324z" />
<glyph unicode="&#x153;" horiz-adv-x="2328" d="M70 553q0 160 77 297t211.5 218t294.5 81t299.5 -84.5t214.5 -226.5q75 143 213 227t299 84q120 0 228.5 -49t186 -130t123.5 -191.5t46 -229.5q0 -7 -1 -20.5t-1 -20.5h-1018q9 -166 139 -286t297 -120q129 0 243.5 73.5t154.5 191.5h151q-57 -173 -211 -283.5 t-336 -110.5q-162 0 -301.5 83.5t-216.5 226.5q-75 -142 -212.5 -226t-297.5 -84q-116 0 -223.5 46.5t-186.5 125t-126 185.5t-47 223zM213 555q0 -185 129 -319t313 -134q121 0 224 62t162 166.5t59 224.5q0 123 -57.5 229.5t-160.5 171t-227 64.5q-187 0 -314.5 -138 t-127.5 -327zM1247 637h871q-27 166 -147.5 274.5t-287.5 108.5q-165 0 -287 -109t-149 -274z" />
<glyph unicode="&#x178;" horiz-adv-x="1212" d="M2 1516h168l432 -850l445 850h165l-532 -1010v-506h-152v506zM379 1642v259h151v-259h-151zM682 1642v259h152v-259h-152z" />
<glyph unicode="&#x2c6;" horiz-adv-x="1028" d="M152 1247l297 256h135l293 -256h-183l-176 150l-180 -150h-186z" />
<glyph unicode="&#x2dc;" horiz-adv-x="899" d="M96 1397q92 86 213 86q63 0 155 -42t136 -42q10 0 20 1.5t20.5 5t17.5 6t19 9.5t16.5 9.5t18.5 11t17 10.5l74 -100q-107 -80 -201 -80q-52 0 -106.5 21t-103.5 42t-87 21q-71 0 -137 -62z" />
<glyph unicode="&#x2000;" horiz-adv-x="978" />
<glyph unicode="&#x2001;" horiz-adv-x="1956" />
<glyph unicode="&#x2002;" horiz-adv-x="978" />
<glyph unicode="&#x2003;" horiz-adv-x="1956" />
<glyph unicode="&#x2004;" horiz-adv-x="652" />
<glyph unicode="&#x2005;" horiz-adv-x="489" />
<glyph unicode="&#x2006;" horiz-adv-x="326" />
<glyph unicode="&#x2007;" horiz-adv-x="326" />
<glyph unicode="&#x2008;" horiz-adv-x="244" />
<glyph unicode="&#x2009;" horiz-adv-x="391" />
<glyph unicode="&#x200a;" horiz-adv-x="108" />
<glyph unicode="&#x2010;" horiz-adv-x="679" d="M61 508v137h557v-137h-557z" />
<glyph unicode="&#x2011;" horiz-adv-x="679" d="M61 508v137h557v-137h-557z" />
<glyph unicode="&#x2012;" horiz-adv-x="679" d="M61 508v137h557v-137h-557z" />
<glyph unicode="&#x2013;" horiz-adv-x="1024" d="M72 508v137h880v-137h-880z" />
<glyph unicode="&#x2014;" horiz-adv-x="2048" d="M72 508v137h1904v-137h-1904z" />
<glyph unicode="&#x2018;" horiz-adv-x="718" d="M195 1516h151l180 -398h-151z" />
<glyph unicode="&#x2019;" horiz-adv-x="718" d="M193 1118l180 398h151l-180 -398h-151z" />
<glyph unicode="&#x201a;" horiz-adv-x="724" d="M182 -139l180 397h152l-180 -397h-152z" />
<glyph unicode="&#x201c;" horiz-adv-x="1028" d="M199 1516h151l180 -398h-151zM502 1516h149l180 -398h-151z" />
<glyph unicode="&#x201d;" horiz-adv-x="991" d="M197 1118l180 398h149l-178 -398h-151zM498 1118l180 398h151l-180 -398h-151z" />
<glyph unicode="&#x201e;" horiz-adv-x="1028" d="M182 -139l180 397h152l-180 -397h-152zM485 -139l181 397h151l-180 -397h-152z" />
<glyph unicode="&#x2022;" horiz-adv-x="1241" d="M307 772q0 131 92.5 224.5t223.5 93.5q129 0 219 -94.5t90 -223.5q0 -130 -90.5 -223.5t-220.5 -93.5t-222 93.5t-92 223.5z" />
<glyph unicode="&#x2026;" horiz-adv-x="2048" d="M266 0v258h152v-258h-152zM948 0v258h152v-258h-152zM1630 0v258h152v-258h-152z" />
<glyph unicode="&#x202f;" horiz-adv-x="391" />
<glyph unicode="&#x2039;" horiz-adv-x="514" d="M82 578l231 407l121 -63l-192 -344l192 -345l-121 -67z" />
<glyph unicode="&#x203a;" horiz-adv-x="514" d="M80 233l192 345l-192 344l119 63l233 -407l-233 -412z" />
<glyph unicode="&#x205f;" horiz-adv-x="489" />
<glyph unicode="&#x20ac;" d="M16 557l52 129h125v74v69h-177l52 129h133q24 262 127 406q56 79 147 128.5t211 49.5q194 0 303 -112q100 -100 117 -263h-143q-16 107 -78 166q-79 72 -201 72q-164 0 -250 -135q-67 -107 -84 -312h639l-51 -129h-594v-69v-74h537l-52 -129h-479q14 -225 94 -334 q76 -112 242 -112q136 0 211 75q54 54 74 160h143q-24 -173 -123 -268q-108 -105 -309 -105q-225 0 -344 148q-65 78 -97.5 182t-41.5 254h-183z" />
<glyph unicode="&#x2122;" horiz-adv-x="1826" d="M18 1419v97h543v-97h-215v-813h-113v813h-215zM678 606v910h160l336 -748l335 748h162v-910h-112v762h-5l-333 -762h-95l-331 760h-4v-760h-113z" />
<glyph unicode="&#x25fc;" horiz-adv-x="1116" d="M0 0v1116h1116v-1116h-1116z" />
</font>
</defs>
</svg>
